<svg version="1.1" id="Layer_1" xmlns="http://www.w3.org/2000/svg" xmlns:xlink="http://www.w3.org/1999/xlink" x="0px" y="0px"
	 width="52.291px" height="99.751px" viewBox="0 0 52.291 99.751" enable-background="new 0 0 52.291 99.751" xml:space="preserve">
<g>
	<path fill-rule="evenodd" clip-rule="evenodd" d="M16.021,75.792c-4.182-2.304-6.79-5.97-8.8-10.096
		c-1.876-3.85-3.037-7.862-2.27-12.159c0.441-2.462,1.84-4.207,4.033-5.459c1.604-0.918,3.187-1.956,4.539-3.192
		c4.229-3.871,4.405-9.913,2.204-14.732c-1.66-3.635-4.541-6.363-7.012-9.405c-2.01-2.476-4.044-4.957-5.771-7.619
		c-0.861-1.326-1.311-3.039-1.502-4.622c-0.435-3.579,1.154-6.244,4.864-7.56c3.571-1.266,7.4-1.527,10.736,0.878
		c2.327,1.678,4.573,3.598,6.432,5.762c5.854,6.812,9.986,14.653,13.6,22.766c2.627,5.898,4.822,11.927,5.734,18.321
		c0.58,4.075,1.107,8.152,0.238,12.236c-1.825,8.575-9.896,17.209-20.715,16.624C19.928,77.407,18.334,76.98,16.021,75.792z"/>
	<path fill-rule="evenodd" clip-rule="evenodd" d="M5.804,98.57c-2.867-1.752-4.651-5.055-5.455-8.919
		c-0.577-2.764-0.472-5.517,0.569-8.174c1.509-3.841,4.887-5.853,8.429-4.918c2.231,0.585,3.938,1.975,5.192,3.845
		c3.049,4.545,3.982,9.375,2.087,14.544C15.003,99.367,10.584,101.125,5.804,98.57z"/>
	<path fill-rule="evenodd" clip-rule="evenodd" d="M24.615,92.854c-2.314-1.279-3.097-3.459-3.323-5.823
		c-0.128-1.334-0.047-2.76,0.317-4.033c0.697-2.435,3.463-3.081,5.46-1.422c2.638,2.189,3.781,7.155,2.342,10.184
		C28.555,93.564,26.73,93.979,24.615,92.854z"/>
	<path fill-rule="evenodd" clip-rule="evenodd" d="M35.099,89.629c-1.707-0.957-2.619-3.05-3.172-5.246
		c-0.336-1.323-0.411-2.797-0.199-4.137c0.374-2.375,2.513-3.157,4.635-1.882c2.704,1.622,4.652,7.151,3.525,9.999
		C39.064,90.447,37.604,90.961,35.099,89.629z"/>
	<path fill-rule="evenodd" clip-rule="evenodd" d="M43.013,81.752c-2.905-1.592-4.566-5.586-3.414-8.201
		c0.844-1.917,2.529-2.49,4.424-1.507c2.686,1.396,4.453,4.718,3.951,7.428C47.522,81.905,45.221,82.963,43.013,81.752z"/>
	<path fill-rule="evenodd" clip-rule="evenodd" d="M49.283,62.769c1.795,1.152,3.104,3.15,3.002,5.865
		c-0.089,2.336-2.089,3.396-4.143,2.192c-2.234-1.308-3.408-3.32-3.525-5.841C44.497,62.431,46.474,61.285,49.283,62.769z"/>
</g>
</svg>
