<svg version="1.1" id="Layer_1" xmlns="http://www.w3.org/2000/svg" xmlns:xlink="http://www.w3.org/1999/xlink" x="0px" y="0px"
	 width="56.678px" height="94.829px" viewBox="0 0 56.678 94.829" enable-background="new 0 0 56.678 94.829" xml:space="preserve">
<g>
	<path fill-rule="evenodd" clip-rule="evenodd" d="M37.081,73.778c3.171-3.57,4.402-7.897,4.915-12.458
		c0.48-4.256,0.231-8.425-1.929-12.216c-1.24-2.174-3.14-3.348-5.626-3.797c-1.82-0.329-3.658-0.775-5.348-1.488
		c-5.28-2.234-7.468-7.867-7.007-13.146c0.349-3.979,2.15-7.513,3.461-11.207c1.065-3.006,2.152-6.025,2.889-9.113
		c0.368-1.537,0.217-3.303-0.13-4.858C27.517,1.979,25.126-0.002,21.191,0c-3.79,0.001-7.485,1.036-9.825,4.42
		c-1.631,2.357-3.105,4.921-4.132,7.582C3.999,20.378,2.727,29.15,2.039,38.005c-0.502,6.438-0.555,12.853,0.726,19.181
		c0.816,4.035,1.684,8.054,3.87,11.612c4.591,7.471,15.083,12.905,25.084,8.733C33.94,76.606,35.3,75.67,37.081,73.778z"/>
	<path fill-rule="evenodd" clip-rule="evenodd" d="M54.334,91.825c2.115-2.61,2.691-6.318,2.157-10.23
		c-0.383-2.798-1.402-5.356-3.273-7.512c-2.706-3.114-6.564-3.882-9.591-1.816c-1.906,1.297-3.049,3.179-3.604,5.361
		c-1.351,5.305-0.616,10.17,2.902,14.405C45.931,95.655,50.684,95.832,54.334,91.825z"/>
	<path fill-rule="evenodd" clip-rule="evenodd" d="M34.694,92.733c1.752-1.979,1.759-4.295,1.183-6.6
		c-0.327-1.3-0.881-2.617-1.65-3.695c-1.471-2.061-4.295-1.745-5.623,0.486c-1.751,2.947-1.167,8.009,1.203,10.383
		C31.219,94.721,33.077,94.501,34.694,92.733z"/>
	<path fill-rule="evenodd" clip-rule="evenodd" d="M23.734,93.202c1.289-1.474,1.449-3.75,1.234-6.004
		c-0.126-1.361-0.549-2.775-1.197-3.967c-1.148-2.113-3.424-2.134-4.998-0.221c-2.005,2.434-1.992,8.295,0.023,10.602
		C20.271,95.297,21.821,95.295,23.734,93.202z"/>
	<path fill-rule="evenodd" clip-rule="evenodd" d="M13.641,88.426c2.205-2.473,2.433-6.791,0.474-8.87
		c-1.437-1.523-3.217-1.5-4.672,0.062c-2.062,2.214-2.617,5.935-1.239,8.32C9.441,90.08,11.965,90.305,13.641,88.426z"/>
	<path fill-rule="evenodd" clip-rule="evenodd" d="M1.38,72.636c-1.307,1.688-1.872,4.007-0.867,6.532
		c0.866,2.173,3.105,2.502,4.639,0.681c1.667-1.979,2.1-4.27,1.368-6.684C5.777,70.716,3.531,70.298,1.38,72.636z"/>
</g>
</svg>
