<svg version="1.1" id="Layer_1" xmlns="http://www.w3.org/2000/svg" xmlns:xlink="http://www.w3.org/1999/xlink" x="0px" y="0px"
	 width="70.425px" height="94.584px" viewBox="0 0 70.425 94.584" enable-background="new 0 0 70.425 94.584" xml:space="preserve">
<g>
	<path fill-rule="evenodd" clip-rule="evenodd" d="M39.054,69.57c-4.733-0.623-8.498-3.087-11.872-6.198
		c-3.149-2.902-5.692-6.216-6.542-10.498c-0.485-2.454,0.182-4.587,1.769-6.553c1.159-1.439,2.255-2.981,3.064-4.625
		c2.528-5.146,0.492-10.837-3.312-14.524c-2.87-2.78-6.547-4.271-9.955-6.205c-2.773-1.574-5.572-3.145-8.15-4.994
		c-1.285-0.922-2.328-2.354-3.083-3.758C-0.735,9.04-0.226,5.979,2.75,3.403c2.865-2.48,6.337-4.118,10.319-3.093
		c2.778,0.714,5.569,1.685,8.088,3.024c7.932,4.212,14.637,10.01,20.956,16.25c4.595,4.537,8.835,9.352,12.013,14.974
		c2.024,3.584,4.001,7.189,4.679,11.31c1.423,8.65-2.95,19.631-13.238,23.026C43.28,69.651,41.64,69.834,39.054,69.57z"/>
	<path fill-rule="evenodd" clip-rule="evenodd" d="M37.833,94.504c-3.309-0.587-6.173-3.014-8.329-6.319
		c-1.544-2.363-2.448-4.966-2.446-7.819c0.006-4.127,2.42-7.23,6.059-7.65c2.291-0.268,4.387,0.405,6.236,1.689
		c4.494,3.123,7.123,7.281,7.24,12.786C46.691,91.896,43.215,95.143,37.833,94.504z"/>
	<path fill-rule="evenodd" clip-rule="evenodd" d="M53.271,82.33c-2.621-0.349-4.144-2.094-5.216-4.213
		c-0.604-1.195-1.049-2.553-1.173-3.871c-0.237-2.521,2.103-4.131,4.567-3.313c3.254,1.079,6.127,5.287,5.89,8.632
		C57.199,81.557,55.651,82.607,53.271,82.33z"/>
	<path fill-rule="evenodd" clip-rule="evenodd" d="M61.861,75.51c-1.938-0.27-3.551-1.887-4.865-3.73
		c-0.795-1.11-1.401-2.455-1.691-3.78c-0.518-2.349,1.189-3.855,3.631-3.44c3.109,0.525,6.938,4.965,6.925,8.028
		C65.851,74.826,64.678,75.838,61.861,75.51z"/>
	<path fill-rule="evenodd" clip-rule="evenodd" d="M66.362,65.291c-3.285-0.424-6.287-3.539-6.166-6.395
		c0.088-2.093,1.449-3.241,3.571-3.013c3.01,0.322,5.865,2.771,6.385,5.478C70.618,63.791,68.86,65.615,66.362,65.291z"/>
	<path fill-rule="evenodd" clip-rule="evenodd" d="M65.289,45.328c2.092,0.419,4.039,1.803,4.933,4.369
		c0.768,2.208-0.709,3.923-3.061,3.551c-2.557-0.405-4.383-1.852-5.41-4.157C60.708,46.756,62.131,44.969,65.289,45.328z"/>
</g>
</svg>
