<?xml version="1.0" encoding="utf-8"?>
<!-- Generator: Adobe Illustrator 16.2.1, SVG Export Plug-In . SVG Version: 6.00 Build 0)  -->
<!DOCTYPE svg PUBLIC "-//W3C//DTD SVG 1.1//EN" "http://www.w3.org/Graphics/SVG/1.1/DTD/svg11.dtd">
<svg version="1.1" id="evo-3_xA0_Image_1_" xmlns="http://www.w3.org/2000/svg" xmlns:xlink="http://www.w3.org/1999/xlink" x="0px"
	 y="0px" width="419.51px" height="200.812px" viewBox="0 0 419.51 200.812" enable-background="new 0 0 419.51 200.812"
	 xml:space="preserve">
<path display="none" fill-rule="evenodd" clip-rule="evenodd" fill="#FFFFFF" d="M240,63.341c4.026,2.974,7.974,6.026,12,9
	c-1.273,2.393-3.262,4.071-7,4C244.75,70.591,240.791,68.55,240,63.341z"/>
<path display="none" fill-rule="evenodd" clip-rule="evenodd" fill="#FFFFFF" d="M347,130.341c-1.846,4.083,1.627,6.082,0,9
	c-2.881-0.119-6.546,0.546-8-1C339.231,133.571,341.816,126.952,347,130.341z"/>
<path display="none" fill-rule="evenodd" clip-rule="evenodd" fill="#FFFFFF" d="M316,145.341c3.544-0.529-0.613,5.631,3,7
	c-1.752,1.581-5.328,1.339-8,2c-0.802-3.469,1.489-3.844,1-7C314.279,147.62,315.759,147.1,316,145.341z"/>
<path display="none" fill-rule="evenodd" clip-rule="evenodd" fill="#FFFFFF" d="M397,150.341c-4.805,2.396-15.641,0.27-5,0
	C393.666,150.299,395.334,150.373,397,150.341z"/>
<path display="none" fill-rule="evenodd" clip-rule="evenodd" fill="#FFFFFF" d="M139,153.341c4.54,1.904-1.109,10.27-1,16
	c0.065,3.437,2.395,6.049,3,10c0.777,5.072-0.577,10.43,0,16c-3.372-0.067-0.177-2.286-3-4c-5.707,0.373-8.847-1.819-12-4
	c-0.844-1.723-1.802-7.908,0-11c0.333-0.57,1.771-1.503,2-2c0.98-2.124,0.997-5.12,2-7C132.115,163.377,136.788,158.396,139,153.341
	z"/>
<path display="none" fill-rule="evenodd" clip-rule="evenodd" fill="#FFFFFF" d="M416,159.341c-3.763-0.278-10.479,0.365-14,0
	c-7.786-0.809-0.799-1.131,5-1c1.163,0.163,1.779-0.221,2-1C410.776,160.796,416.327,154.684,416,159.341z"/>
<path display="none" fill-rule="evenodd" clip-rule="evenodd" fill="#FFFFFF" d="M311,189.341c1.063-2.27,6.286-0.381,9-1
	C318.05,189.74,313.286,191.333,311,189.341z"/>
<path display="none" fill-rule="evenodd" clip-rule="evenodd" fill="#FFFFFF" d="M330,189.341c0.667,0,1.333,0,2,0
	c0,0.667,0,1.333,0,2c-0.667,0-1.333,0-2,0C330,190.674,330,190.008,330,189.341z"/>
<path display="none" fill-rule="evenodd" clip-rule="evenodd" fill="#FFFFFF" d="M336,190.341c1.982-2.559,8.143-0.877,7,3
	C338.397,194.609,338.152,191.522,336,190.341z"/>
<path display="none" fill-rule="evenodd" clip-rule="evenodd" fill="#FFFFFF" d="M-70-36.659c223,0,446.002,0,669,0
	c0,100,0,200,0,300c-223.337,0-446.663,0-670,0c0-99,0-198,0-297C-71.086-35.079-71.165-36.491-70-36.659z M186,23.341
	c0.888,0.82,2.076,1.23,3,2c2.782,2.318,5.462,5.127,8,7c1.946,1.436,4.064,2.592,6,4c6.07,4.416,12.519,8.565,17,13
	c1.828,1.809,4.916,2.709,4,6c-1.727,5.001-5.638,7.809-7,12c-0.386,1.188,0.284,4.051,0,6c-0.627,4.299-3.034,11.833-3,17
	c0.06,9.127,3.673,13.109,5,19c0.551,2.445-0.474,5.006,0,8c0.538,3.398,3.653,6.979,4,10c0.181,1.573-0.882,5.131-1,7
	c-0.275,4.379,0.602,8.772,0,12c-1.024,5.497-6.123,10.113-7,16c-0.75,5.032,0.998,9.621,1,14c0.003,7.013-2.392,12.976-1,20
	c7-1.333,16.524-0.143,23-2c0.668-4.335-4.641-2.692-8-3c-1.283-2.717-5.122-2.878-6-6c-0.686-18.686,5.612-30.388,12-42
	c1.089,2.628,3.504,4.907,4,8c0.316,1.975-0.834,4.799-1,7c-0.256,3.409-0.462,7.616,0,11c0.608,4.448,3.448,8.509,4,13
	c0.55,4.479-0.412,9.283,0,14c2.633,2.58,8.78,1.954,14,2c4.793,0.042,10.918,0.518,12-2c-8.3-2.399-18.081-7.395-19-21
	c-0.189-2.806,0.796-5.326,1-8c0.915-11.983-0.395-23.666-2-33c-0.314-1.825-1.91-3.545-2-5c-0.229-3.671,1.012-3.591,0-7
	c-0.105-0.354-0.546-2.843-1-4c-0.115-0.292-1.786-0.643-2-1c-0.452-0.753-0.795-2.581-1-3c-2.801-5.734-0.787-7.005-1-14
	c-0.158-5.169-1.156-6.668,0-10c0.309-0.889,0.349-2.897,1-4c2.966-5.026,11.73-6.064,17-8c4.841,2.469,10.434,7.634,14,10
	c1.662,1.103,3.061,2.376,4,3c1.662,1.103,3.061,2.376,4,3c0.911,0.604,1.251,1.472,2,2c1.354,0.954,3.588,1.109,5,2
	c1.37,0.865,2.072,4.263,4,2c-0.259-3.153-3.943-3.542-6-5c-5.867-4.158-11.916-9.595-17-13c-4.983-3.338-7.597-5.799-10-11
	c-10.012-1.321-15.509-7.158-21-13c2.899-1.101,6.763-1.237,7-5c-1.528-2.164,0.47-4.575,0-7c-0.282-1.458-1.94-2.687-2-4
	c-0.047-1.026,0.947-1.166,1-2c0.082-1.292-1.22-1.353-1-3c0.157-1.18,2.869-2.423,1-4c-6.602-4.421-18.472-0.87-22,4
	c-0.608,3.591-0.646,7.747-1,9c-5.764-2.293-10.082-7.173-14-10c-1.649-1.19-3.417-1.836-5-3c-6.257-4.602-11.55-10.642-19-14
	c-1.003,0.003-1.19-0.81-2-1C182.562,20.283,184.631,22.077,186,23.341z M487,169.341c2.808,6.865,3.622,16.411,2,25
	c-0.988,0.793-3.811,4.7-2,5c0.057-0.61,0.149-1.184,1-1c5.405,2.407,12.994,2.61,20,2c2.771-0.241,7.235,0.665,7-2
	c-2.253-3.081-8.316-2.35-12-4c-8.673-6.45-0.728-27.635-2-34c-0.179-0.896,0.994-0.919,1-1c0.35-5.014,0.722-8.173,2-11
	c-1.09-2.793-2.202-5.834-3-8c-2.01-5.455-3.07-7.102-5-11c-1.229-2.484-1.926-4.879-3-7c-2.127-4.198-7.094-8.7-4-14
	c4.879,2.121,9.581,4.419,15,6c1.632,2.368,2.551,5.449,6,6c3.988-2.829,6.966-5.608,7-10c3.796-2.871,9.484-3.849,11-9
	c-2.13-1.814-3.846,1.648-6,3c-2.2,1.381-5.286,2.371-7,4c-0.421-1.912-0.362-4.304-3-4c-2.352,0.315-0.594,4.74-4,4
	c-9.203-1.407-16.292-4.74-17-12c-0.321-3.292,2.897-6.969,4-11c1.405-5.138,0.344-9.623,3-13c6.546-0.88,7.579,3.755,12,5
	c0.966-2.367,1.754-4.913,6-4c0.334-2.333,1.025-4.309,3-5c1.932-1.735,5.068-2.265,7-4c-1.566-6.236-5.171-14.291-12-15
	c-5.43-0.564-8.889,3.185-13,7c-8.342,2.992-16.364,6.303-24,10c-3.146,3.866-5.584,10.039-8,13c-2.167,2.657-4.734,5.35-5,9
	c-0.338,4.638,3.861,8.672,4,14c0.182,6.953-5.108,11.411-3,19c1.761,2.573,4.349,4.317,6,7c1.827,7.215,2.91,16.921,1,25
	c-4.19,3.143-7.606,7.061-11,11c0.202,5.327-1.587,8.172-3,11c-0.865,1.73-1.229,3.594-2,5c-1.77,3.23-6.162,5.343-6,10
	c3.458,0.084,8.685,2.032,11,6c-2.002-1.271-10.481-2.339-11,1c4.792,1.919,11.226,0.58,17,0c2.92-0.294,8.27,1.835,9-2
	c-4.161-3.839-12.836-3.164-13-11c5.812-11.521,13.965-20.702,22-30c0.661-2.672,0.419-6.248,2-8
	C493.369,150.31,488.397,163.713,487,169.341z M163,60.341c-3.813,2.657-6.282,5.779-10,8c-3.04,1.816-9.339,3.409-11,5
	c-0.7,0.67-1.151,0.346-2,1c-6.713,5.179-10.898,14.209-15,22c-4.251,8.073-8.241,16.438-13,24c1.543,7.456,5.322,12.678,6,21
	c2.819,3.848,4.544,8.79,6,14c-1.582,5.221-6.723,9.336-8,14c-0.919,3.359,0.616,7.471,0,11c-0.425,2.434-2.228,5.187-3,7
	c-1.083,2.543-2.748,4.359-3,7c8.641,1.524,20.194-0.133,28,2c2.752,0.752,4.454,2.641,7,3c4.557,0.643,10.569,0.291,15,0
	c4.524-0.298,9.116,0.678,12-3c-4.883-4.783-17.082-2.252-20-9c-0.528-14.528-0.354-28.354,5-37c-0.826-3.075-3.393-6.297-4-10
	c-0.283-1.727,1.082-4.353,1-6c-0.11-2.232-1.68-4.382-2-7c-0.907-7.428,0.083-13.416-2-18c3.288-7.046,7.794-12.873,9-22
	c3.27-5.529,14.255-1.08,19-3c2.34-2.287,3.704-4.748,1-8c0.859-5.044,0.27-5.591,0-11C175.369,61.972,170.773,59.567,163,60.341z
	 M406,108.341c0.493-4.118-3.447,0.962-1-3c-3.056,0.723-3.645-1.022-6-1c-1.018,8.648-2.814,16.519-4,25
	c2.391,0.609,7.256-1.255,8,1c-0.53,6.136-4.079,9.254-5,15c-6.69-1.822-15.984,1.868-24,2c-0.993-3.341-3.787-4.879-6-7
	c3.159-1.508,3.928-5.406,9-5c1.762,0.905,1.652,3.681,4,4c0.17-1.496-0.357-3.69,1-4c3.786,1.893,5.412,1.401,10,1
	c0.005-4.005-4.686-3.314-6-6c0.091-1.576,2.551-0.783,2-3c-5.713-3.567-15.208-4.675-18-2c-3.176,3.043-6.431,7.446-11,7
	c-0.751-3.964-4.574-13.086,0-16c4.178-0.511,6.775,0.558,9,2c1.562-3.104,4.088-5.246,6-8c-1.406-0.261-1.14-2.193-2-3
	c1.759-0.241,2.279-1.721,2-4c2.182,0.182,3.182-0.818,3-3c-2.793-4.541-9.181-5.486-16-6c-4.67,2.147-5.391,8.595-11,11
	c-3.578,1.534-8.518-0.027-12,1c-0.39,0.115-2.821,1.42-4,2c-5.364,2.638-9.04,7.614-11,11c-1.873,3.235-2.961,6.545-4,11
	c-1.662-1.672-2.618-4.049-6-4c-0.889,1.778-2.792,2.542-2,6c-2.774,0.226-2.829,3.171-5,4c1.48,0.186,0.917,2.417,1,4
	c2.279,1.373,3.759-2.578,4,0c-0.407,8.201-3.858,15.691,2,20c5.535,0.189,5.675,1.021,10,0c-3.342,3.249,1.896,2.342,3,4
	c-3.382,0.951-7.569,1.098-7,6c4.314-0.019,3.686-4.981,8-5c0.912,4.639,2.723,14.201-2,16c-4.26-0.074-6.994-1.673-12-1
	c1.1,5.1-4.939,3.061-7,5c1.529,3.181,0.351,4.399,0,8c6.544,1.641,12.79-4.133,21-4c-1.024,8.024,9.371,4.629,14,7
	c-1.453,0.547-5.169-1.169-5,1c8.973,2.42,15.508,2.639,26,0c-3.378-1.289-3.682-5.651-8-6c0.257-2.077,4.394-0.273,5-2
	c-0.307-3.027-3.094-3.572-2-8c-2.494,0.704-4.109,0.984-6-1c3.011-15.656,15.069-22.264,25-31c0.125,4.208,7.296,1.371,5,8
	c3.767,0.9,9.035,0.298,12,2c-1.333,0-2.667,0-4,0c0,11.667,0,23.333,0,35c6.391,1.286,12.922,0.274,17,0
	c6.792-0.457,15.397,1.916,19-2c-9.339-0.661-21.326,1.326-29-1c14.187-0.387,17.17-0.425,28-1c1.382-4.049-2.171-3.163-2-6
	c1.003-0.003,1.19,0.81,2,1c0.115-8.885-0.536-18.536,1-26c-1.89-0.443-6.026,1.36-5-2c3.909,1.473,6.236,0.159,11-1
	c-1.02-9.172,8.385-1.713,7-11c-2.333,0-4.667,0-7,0c1.021-4.687-1.646-5.688-3-8c-8.05,1.05-10.911-3.089-15-6
	c0.314-1.353,1.424-1.91,1-4c4.863,0.863,5.137-2.863,10-2c-0.738-2.875,0.114-5.028-2-6c0.373,0.171-2.047,1.899-2,0
	c1.182-0.485,2.267-1.066,3-2c-3.589-0.589-4.838,1.162-7,2c0.787-3.433-0.935-5.154-3-3c0.521-1.479,1.479-2.521,2-4
	C411.199,111.808,410.966,107.708,406,108.341z M59,113.341c-4.343-1.126-7.855,0.709-12,2c-1.925,2.075-3.156,4.844-5,7
	c-3.378,3.368-9.4,3.7-13,6c-2.369,1.514-4.863,5.143-7,7c-2.629,2.285-4.706,4.627-8,6c-2.427,6.227-9.098,8.514-9,15
	c0.085,5.626,6.941,8.959,8,15c-2.142,2.363-4.443,4.428-7,7c-2.75,2.767-5.984,3.811-6,8c-0.01,2.537,2.472,3.919,4,6
	c1.565,2.132,2.436,3.723,4,6c3.667,0,7.333,0,11,0c-0.254-5.079-8.531-2.136-9-7c-1.386-9.386,5.891-10.108,11-13
	c0.711-2.955,0.275-7.059,3-8c9.913,2.625,3.676,12.892,6,21c-0.056,3.277-2.844,3.822-2,8c7.954-1.046,20.606,2.606,24-3
	c-4.256-2.077-12.036-0.631-14-5c-0.852-7.748,2.884-12.416,2-18c-1.007-6.362-8.273-8.873-8-16c2.201-5.512,12.557-8.341,16-2
	c0.132,2.465,0.151,4.818-1,6c6.56,7.773,14.349,14.317,20,23c-1.028,2.306-3.442,3.225-3,7c2.503-0.125,3.13-1.908,4,1
	c-2.076,0.591-3.409,1.924-4,4c2.892,2.161,8.965,0.822,11-1c-0.918-9.423-6.875-19.113-6-27c4.498,1.734,11.26,5.756,8,12
	c3.129-0.204,7.341,0.675,9-1c1.195-16.92-20.689-16.088-25-28c-2.46-6.799,1.214-10.542-1-18c3.15-0.483,2.264,3.069,6,2
	c1.906-2.427,2.622-6.045,4-9c-2.457-1.544-3.983-4.017-6-6c1.22-0.113,2.368-0.299,2-2C62.711,118.946,62.262,114.187,59,113.341z"
	/>
<path display="none" fill-rule="evenodd" clip-rule="evenodd" fill="#FFFFFF" d="M431,151.341c-12.711-0.142-21.825,0.608-29-1
	c-5.946-1.333,3.72,0.149,0,0C407.518,150.562,421.246,149.347,431,151.341z"/>
<path display="none" fill-rule="evenodd" clip-rule="evenodd" fill="#FFFFFF" d="M331,161.341c5.3-2.969,11.812,1.856,16,0
	c-0.083-1.583,0.48-3.814-1-4c0.85-1.483,2.517-2.15,5-2c-0.131,9.535-6.327,13.006-12,17c-0.726,3.059,1.726,2.941,1,6
	c-2.882,0.451-3.128,3.539-7,3c0.529-0.805,1.043-1.623,1-3c-1.701-0.367-1.887,0.78-2,2c-2.448-0.111-0.212-3.306,1-3
	C333.732,170.608,332.283,166.058,331,161.341z"/>
<path display="none" fill-rule="evenodd" clip-rule="evenodd" d="M415,112.341c-0.521,1.479-1.479,2.521-2,4
	c2.065-2.154,3.787-0.433,3,3c2.162-0.838,3.411-2.589,7-2c-0.733,0.934-1.818,1.515-3,2c-0.047,1.899,2.373,0.171,2,0
	c2.114,0.972,1.262,3.125,2,6c-4.863-0.863-5.137,2.863-10,2c0.424,2.09-0.686,2.647-1,4c4.089,2.911,6.95,7.05,15,6
	c1.354,2.312,4.021,3.313,3,8c2.333,0,4.667,0,7,0c1.385,9.287-8.02,1.828-7,11c-4.764,1.159-7.091,2.473-11,1
	c-1.026,3.36,3.11,1.557,5,2c-1.536,7.464-0.885,17.115-1,26c-0.81-0.19-0.997-1.003-2-1c-0.171,2.837,3.382,1.951,2,6
	c-10.83,0.575-13.813,0.613-28,1c7.674,2.326,19.661,0.339,29,1c-3.603,3.916-12.208,1.543-19,2c-4.078,0.274-10.609,1.286-17,0
	c0-11.667,0-23.333,0-35c1.333,0,2.667,0,4,0c-2.965-1.702-8.233-1.1-12-2c2.296-6.629-4.875-3.792-5-8
	c-9.931,8.736-21.989,15.344-25,31c1.891,1.984,3.506,1.704,6,1c-1.094,4.428,1.693,4.973,2,8c-0.606,1.727-4.743-0.077-5,2
	c4.318,0.349,4.622,4.711,8,6c-10.492,2.639-17.027,2.42-26,0c-0.169-2.169,3.547-0.453,5-1c-4.629-2.371-15.024,1.024-14-7
	c-8.21-0.133-14.456,5.641-21,4c0.351-3.601,1.529-4.819,0-8c2.061-1.939,8.1,0.1,7-5c5.006-0.673,7.74,0.926,12,1
	c4.723-1.799,2.912-11.361,2-16c-4.314,0.019-3.686,4.981-8,5c-0.569-4.902,3.618-5.049,7-6c-1.104-1.658-6.342-0.751-3-4
	c-4.325,1.021-4.465,0.189-10,0c-5.858-4.309-2.407-11.799-2-20c-0.241-2.578-1.721,1.373-4,0c-0.083-1.583,0.48-3.814-1-4
	c2.171-0.829,2.226-3.774,5-4c-0.792-3.458,1.111-4.222,2-6c3.382-0.049,4.338,2.328,6,4c1.039-4.455,2.127-7.765,4-11
	c1.96-3.386,5.636-8.362,11-11c1.179-0.58,3.61-1.885,4-2c3.482-1.027,8.422,0.534,12-1c5.609-2.405,6.33-8.853,11-11
	c6.819,0.514,13.207,1.459,16,6c0.182,2.182-0.818,3.182-3,3c0.279,2.279-0.241,3.759-2,4c0.86,0.807,0.594,2.739,2,3
	c-1.912,2.754-4.438,4.896-6,8c-2.225-1.442-4.822-2.511-9-2c-4.574,2.914-0.751,12.036,0,16c4.569,0.446,7.824-3.957,11-7
	c2.792-2.675,12.287-1.567,18,2c0.551,2.217-1.909,1.424-2,3c1.314,2.686,6.005,1.995,6,6c-4.588,0.401-6.214,0.893-10-1
	c-1.357,0.31-0.83,2.504-1,4c-2.348-0.319-2.238-3.095-4-4c-5.072-0.406-5.841,3.492-9,5c2.213,2.121,5.007,3.659,6,7
	c8.016-0.132,17.31-3.822,24-2c0.921-5.746,4.47-8.864,5-15c-0.744-2.255-5.609-0.391-8-1c1.186-8.481,2.982-16.352,4-25
	c2.355-0.022,2.944,1.723,6,1c-2.447,3.962,1.493-1.118,1,3C410.966,107.708,411.199,111.808,415,112.341z M339,138.341
	c1.454,1.546,5.119,0.881,8,1c1.627-2.918-1.846-4.917,0-9C341.816,126.952,339.231,133.571,339,138.341z M312,147.341
	c0.489,3.156-1.802,3.531-1,7c2.672-0.661,6.248-0.419,8-2c-3.613-1.369,0.544-7.529-3-7C315.759,147.1,314.279,147.62,312,147.341z
	 M431,149.341c2.355,0.022,2.944-1.723,6-1C437.504,144.402,430.046,146.517,431,149.341z M402,150.341
	C405.72,150.49,396.054,149.008,402,150.341c7.175,1.608,16.289,0.858,29,1C421.246,149.347,407.518,150.562,402,150.341z
	 M392,150.341c-10.641,0.27,0.195,2.396,5,0C395.334,150.373,393.666,150.299,392,150.341z M333,177.341
	c-1.212-0.306-3.448,2.889-1,3c0.113-1.22,0.299-2.367,2-2c0.043,1.377-0.471,2.195-1,3c3.872,0.539,4.118-2.549,7-3
	c0.726-3.059-1.726-2.941-1-6c5.673-3.994,11.869-7.465,12-17c-2.483-0.15-4.15,0.517-5,2c1.48,0.186,0.917,2.417,1,4
	c-4.188,1.856-10.7-2.969-16,0C332.283,166.058,333.732,170.608,333,177.341z M409,157.341c-0.221,0.779-0.837,1.163-2,1
	c-5.799-0.131-12.786,0.191-5,1c3.521,0.365,10.237-0.278,14,0C416.327,154.684,410.776,160.796,409,157.341z M320,188.341
	c-2.714,0.619-7.937-1.27-9,1C313.286,191.333,318.05,189.74,320,188.341z M330,191.341c0.667,0,1.333,0,2,0c0-0.667,0-1.333,0-2
	c-0.667,0-1.333,0-2,0C330,190.008,330,190.674,330,191.341z M343,193.341c1.143-3.877-5.018-5.559-7-3
	C338.152,191.522,338.397,194.609,343,193.341z"/>
<g>
	<path fill-rule="evenodd" clip-rule="evenodd" d="M182,18.341c0.81,0.19,0.997,1.003,2,1c7.45,3.358,12.743,9.398,19,14
		c1.583,1.164,3.351,1.81,5,3c3.918,2.827,8.236,7.707,14,10c0.354-1.253,0.392-5.409,1-9c3.528-4.87,15.398-8.421,22-4
		c1.869,1.577-0.843,2.82-1,4c-0.22,1.647,1.082,1.708,1,3c-0.053,0.834-1.047,0.974-1,2c0.06,1.313,1.718,2.542,2,4
		c0.47,2.425-1.528,4.836,0,7c-0.237,3.763-4.101,3.899-7,5c5.491,5.842,10.988,11.679,21,13c2.403,5.201,5.017,7.662,10,11
		c5.084,3.405,11.133,8.842,17,13c2.057,1.458,5.741,1.847,6,5c-1.928,2.263-2.63-1.135-4-2c-1.412-0.891-3.646-1.046-5-2
		c-0.749-0.528-1.089-1.396-2-2c-0.939-0.624-2.338-1.897-4-3c-0.939-0.624-2.338-1.897-4-3c-3.566-2.366-9.159-7.531-14-10
		c-5.27,1.936-14.034,2.974-17,8c-0.651,1.103-0.691,3.111-1,4c-1.156,3.332-0.158,4.831,0,10c0.213,6.995-1.801,8.266,1,14
		c0.205,0.419,0.548,2.247,1,3c0.214,0.357,1.885,0.708,2,1c0.454,1.157,0.895,3.646,1,4c1.012,3.409-0.229,3.329,0,7
		c0.09,1.455,1.686,3.175,2,5c1.605,9.334,2.915,21.017,2,33c-0.204,2.674-1.189,5.194-1,8c0.919,13.605,10.7,18.601,19,21
		c-1.082,2.518-7.207,2.042-12,2c-5.22-0.046-11.367,0.58-14-2c-0.412-4.717,0.55-9.521,0-14c-0.552-4.491-3.392-8.552-4-13
		c-0.462-3.384-0.256-7.591,0-11c0.166-2.201,1.316-5.025,1-7c-0.496-3.093-2.911-5.372-4-8c-6.388,11.612-12.686,23.314-12,42
		c0.878,3.122,4.717,3.283,6,6c3.359,0.308,8.668-1.335,8,3c-6.476,1.857-16,0.667-23,2c-1.392-7.024,1.003-12.987,1-20
		c-0.002-4.379-1.75-8.968-1-14c0.877-5.887,5.976-10.503,7-16c0.602-3.228-0.275-7.621,0-12c0.118-1.869,1.181-5.427,1-7
		c-0.347-3.021-3.462-6.602-4-10c-0.474-2.994,0.551-5.555,0-8c-1.327-5.891-4.94-9.873-5-19c-0.034-5.167,2.373-12.701,3-17
		c0.284-1.949-0.386-4.812,0-6c1.362-4.191,5.273-6.999,7-12c0.916-3.291-2.172-4.191-4-6c-4.481-4.435-10.93-8.584-17-13
		c-1.936-1.408-4.054-2.564-6-4c-2.538-1.873-5.218-4.682-8-7c-0.924-0.77-2.112-1.18-3-2C184.631,22.077,182.562,20.283,182,18.341
		z M245,76.341c3.738,0.071,5.727-1.607,7-4c-4.026-2.974-7.974-6.026-12-9C240.791,68.55,244.75,70.591,245,76.341z"/>
	<path fill-rule="evenodd" clip-rule="evenodd" d="M179,65.341c0.27,5.409,0.859,5.956,0,11c2.704,3.252,1.34,5.713-1,8
		c-4.745,1.92-15.73-2.529-19,3c-1.206,9.127-5.712,14.954-9,22c2.083,4.584,1.093,10.572,2,18c0.32,2.618,1.89,4.768,2,7
		c0.082,1.647-1.283,4.273-1,6c0.607,3.703,3.174,6.925,4,10c-5.354,8.646-5.528,22.472-5,37c2.918,6.748,15.117,4.217,20,9
		c-2.884,3.678-7.476,2.702-12,3c-4.431,0.291-10.443,0.643-15,0c-2.546-0.359-4.248-2.248-7-3c-7.806-2.133-19.359-0.476-28-2
		c0.252-2.641,1.917-4.457,3-7c0.772-1.813,2.575-4.566,3-7c0.616-3.529-0.919-7.641,0-11c1.277-4.664,6.418-8.779,8-14
		c-1.456-5.21-3.181-10.152-6-14c-0.678-8.322-4.457-13.544-6-21c4.759-7.562,8.749-15.927,13-24c4.102-7.791,8.287-16.821,15-22
		c0.849-0.654,1.3-0.33,2-1c1.661-1.591,7.96-3.184,11-5c3.718-2.221,6.187-5.343,10-8C170.773,59.567,175.369,61.972,179,65.341z
		 M130,167.341c-1.003,1.88-1.02,4.876-2,7c-0.229,0.497-1.667,1.43-2,2c-1.802,3.092-0.844,9.277,0,11
		c3.153,2.181,6.293,4.373,12,4c2.823,1.714-0.372,3.933,3,4c-0.577-5.57,0.777-10.928,0-16c-0.605-3.951-2.935-6.563-3-10
		c-0.109-5.73,5.54-14.096,1-16C136.788,158.396,132.115,163.377,130,167.341z"/>
	<g>
		<path fill-rule="evenodd" clip-rule="evenodd" d="M405.459,68.559 M417.43,0c0.782,0.411,2.668,0.754,1.899,2.44
			c-0.475,6.073-2.037,14.214-3.041,22.653c-0.965,8.106-2.422,14.588-2.991,20.064c-0.628,2.416-0.709,3.263-1.09,4.979
			c-0.415,1.848-0.652,3.992-1.047,6.026c-0.222,1.132,0.186,2.443,0,3.584c-0.183,1.104-0.928,1.763-1.14,2.986
			c-1.914,10.925-3.749,22.445-5.701,32.859c0.305,2.072,1.525,3.182,1.712,5.378c-1.267,0.938-1.603,3.019-2.279,4.779
			c-0.536,1.383-1.45,2.748-1.713,4.183c-0.806,4.432-0.309,8.399-2.267,12.509c-0.428,4.294-1.527,9.221-2.291,13.182
			c-0.327,1.688-0.276,1.081-1.14,4.182c-0.239,2.317-0.414,3.591-0.596,5.415c-0.373,3.766-1.068,6.285-1.686,10.719
			c-0.324,2.313-0.294,4.628-0.57,7.166c-0.242,2.223-1.01,6.91-0.984,8.292c0.01,0.671-0.158,0.822-0.156,0.671
			c-0.175,8.852-1.627,12.496-3.05,20.962c-0.666-2.191-2.664,1.712-4.358,1.743c-1.068,0.121-0.977,1.152-1.71,1.79
			c-1.864,1.621-3.505,0.939-5.13,0.6c-0.477-0.101-0.571,0.594-0.569,0.594c-7.43,0.104-14.05,2.57-19.38,0.6
			c1.439-5.651-0.731-10.93,0-16.132c0.412-2.929,2.271-5.325,2.852-8.363c1.174-6.146,0.271-12.86,1.14-20.313
			c0.386-1.387,1.455-2.059,2.279-2.987c-0.78-1.774-2.121-2.892-2.851-4.183c-1.294-2.292-2.237-4.981-3.42-7.17
			c-0.304-0.565-1.357-1.199-1.708-1.793c-0.557-0.937-0.083-2.851-1.712-2.39c-0.227,4.382,0.312,7.86,0,11.353
			c-0.96,10.832-7.982,17.936-8.547,26.885c-0.107,1.676,0.52,3.479,0.57,5.378c0.022,0.907-0.616,1.944-0.57,2.987
			c0.099,2.282,0,2.715,0,4.184c0,0.362,0.559,1.3,0.57,1.195c-0.107,1.161-1.752,1.485-0.57,2.389
			c2.607,1.026,4.16,0.231,5.696,2.39c1.179,1.65,0.663,4.402,0.572,6.571c-2.747,1.052-5.584,0.106-8.55,0.598
			c-1.597,0.265-2.955,1.511-4.558,1.792c-1.753,0.308-2.287-0.524-2.851-0.598c-0.574-0.074-0.679,0.621-1.141,0.598
			c-1.072-0.056-2.347-0.428-3.418-0.598c-0.561-2.978,0.567-5.622,0.569-8.363c0.002-5.509-1.793-11.013-1.71-16.132
			c0.043-2.788,1.44-5.311,1.71-8.363c-0.017,0.165-0.523-1.201-0.569-1.794c-0.373-4.641,0.975-9.607,1.707-13.142
			c0.582-2.805,1.019-3.615,1.711-4.781c0.354-0.601,0.22-1.098,0.568-1.791c0.654-1.288,1.425-2.22,1.71-3.586
			c0.984-4.681-0.528-9.828,0-14.938c0.605-5.847,4.051-11.354,1.713-16.728c-3.471-0.452-5.17,0.955-8.55,0.597
			c0.375,3.778-0.368,6.385-2.852,7.171c-2.52-1.541-3.116-5.099-2.849-9.56c-2.126-0.361-2.798-2.247-5.13-2.39
			c-1.598,2.747,5.005,9.836-0.57,11.351c-0.896-3.64-0.568-8.566-1.71-11.949c-2.84,0.26-6.835-1.949-10.828-4.181
			c-3.388-1.894-7.393-3.998-9.118-5.976c-0.157-0.177-0.513-1.412-1.141-2.39c-1.258-1.956-1.846-1.648-1.142-2.389
			c1.093-1.144,0.032-3.628,1.711-3.585c0.622-1.338,0.941-2.994,1.71-4.182c2.844-1.625,6.467-3.001,10.828-3.586
			c3.639-0.486,7.714,0.525,10.26-1.792c-1.731-0.115-2.478-1.48-3.989-1.792c-2.149-0.444-4.56,0.577-6.271,0
			c-1.553-0.525-3.768-2.626-4.56-4.183c-3.223-6.329,0.707-12.009,6.271-13.741c-1.05-2.982-3.474-5.813-3.421-9.56
			c0.083-5.721,4.793-11.793,10.829-10.753c0.705-3.045,4.283-3.08,7.409-3.585c0.953-1.648,2.07-3.335,3.42-4.78
			c1.159-1.238,2.589-3.008,4.56-3.585c2.604-0.76,5.839,0.769,9.119-0.597c1.399,2.119,6.04,0.839,8.548,1.792
			c0.08,1.113,0.379,1.997,1.143,2.389c0.169,2.111,1.141-2.528,1.708,0c1.1,1.913-0.334,3.015,0.573,5.377
			c1.03,0.452,1.953,1.455,3.986,1.792c1.156,0.191,3.683,1.299,2.28-1.194c-0.946,3.266-0.501-3.948-0.568-3.585
			c0.334-1.746,2.153-3.777,4.56-5.975c0.477-0.434,1.113-0.133,1.709-0.597c0.154-0.12-0.088-0.995,0-1.195
			c0.035-0.083,1.037-0.525,1.142-0.598c2.873-2.039,6.396-2.054,10.828-1.791c1.25,1.078,2.813,1.829,3.42,3.584
			c3.619,1.167,3.488,7.695,0.569,9.559c1.388,1.783,0.979,3.64-0.569,4.781c0.184,2.78-1.135,3.987-1.143,6.572
			c-1.002,0.939-3.637,0.167-3.987,1.793c-1.656,4.103,1.622,7.631,1.14,13.74c0.855,1.691,2.305,2.762,2.281,5.376
			c-2.033,3.447-1.391,9.697-2.852,13.742c1.85,5.031,7.493,6.087,9.688,10.754c2.915,0.241,7.599,5.778,9.122,4.182
			c1.005-1.052,3.91,0.377,4.558-0.597 M393.49,136.817 M392.35,142.792 M398.619,112.918c0.244-1.241-0.036-2.913,0-4.181
			c0.041-1.38,0.538-2.648,0-3.585c-1.523-0.591-3.004-1.23-5.129-1.195c-2.524-3.325-7.895-3.672-10.259-7.168
			c-1.742,0.43-2.077-0.611-3.42-0.6c-1.683-1.543-3.766-3.831-5.128-4.779c-1.486-1.033-2.279-2.808-3.99-2.987
			c-0.008-0.603-0.999-0.751-1.141,0c2.08,4.494,5.289,8.195,5.131,14.339c-0.079,3.005-2.082,5.384-1.712,8.364
			c0.295,2.354,2.876,4.263,3.42,6.572c0.562,2.378-0.215,5.511,0,8.365c0.134,1.767,0.834,3.842,1.141,5.974
			c0.338,2.357,0.171,5.233,0.569,7.169c0.277,1.34,1.073,1.784,1.141,2.988c0.055,0.972-0.479,2.377-0.57,3.586
			c-0.181,2.448,0.29,5.118,0,7.168c-0.119,0.834-0.896,1.04-1.14,1.793c-0.249,0.77-0.476,2.055-0.57,2.389
			c-0.508,1.815-0.877,4.008-0.57,4.183c-0.23,1.152-2.211,0.472-1.708,2.392c-1.947,7.152,0.899,16.929-0.569,23.301
			c3.522,2.486,8.076,0.566,11.966,2.984c0.163-5.024,2.408-11.117,1.793-15.047c0.133-0.896,0.238-0.635,0.488-2.277
			c-0.409-2.289,0.536-7.661,1.142-12.548c0.487-3.968,1.296-7.921,1.708-11.351c0.258-2.142,0.004-2.989,0.57-3.587
			 M396.912,120.686 M327.376,116.504c3.423,0.477,2.118-4.546,0.569-5.378C328.34,113.529,327.4,114.537,327.376,116.504z
			 M387.115,194.123c-0.847-1.753,1.034-2.842-0.748-3.61"/>
	</g>
	<path fill-rule="evenodd" clip-rule="evenodd" d="M66,118.341c0.368,1.701-0.78,1.887-2,2c2.017,1.983,3.543,4.456,6,6
		c-1.378,2.955-2.094,6.573-4,9c-3.736,1.069-2.85-2.483-6-2c2.214,7.458-1.46,11.201,1,18c4.311,11.912,26.195,11.08,25,28
		c-1.659,1.675-5.871,0.796-9,1c3.26-6.244-3.502-10.266-8-12c-0.875,7.887,5.082,17.577,6,27c-2.035,1.822-8.108,3.161-11,1
		c0.591-2.076,1.924-3.409,4-4c-0.87-2.908-1.497-1.125-4-1c-0.442-3.775,1.972-4.694,3-7c-5.651-8.683-13.44-15.227-20-23
		c1.151-1.182,1.132-3.535,1-6c-3.443-6.341-13.799-3.512-16,2c-0.273,7.127,6.993,9.638,8,16c0.884,5.584-2.852,10.252-2,18
		c1.964,4.369,9.744,2.923,14,5c-3.394,5.606-16.046,1.954-24,3c-0.844-4.178,1.944-4.723,2-8c-2.324-8.108,3.913-18.375-6-21
		c-2.725,0.941-2.289,5.045-3,8c-5.109,2.892-12.386,3.614-11,13c0.469,4.864,8.746,1.921,9,7c-3.667,0-7.333,0-11,0
		c-1.564-2.277-2.435-3.868-4-6c-1.528-2.081-4.01-3.463-4-6c0.016-4.189,3.25-5.233,6-8c2.557-2.572,4.858-4.637,7-7
		c-1.059-6.041-7.915-9.374-8-15c-0.098-6.486,6.573-8.773,9-15c3.294-1.373,5.371-3.715,8-6c2.137-1.857,4.631-5.486,7-7
		c3.6-2.3,9.622-2.632,13-6c1.844-2.156,3.075-4.925,5-7c4.145-1.291,7.657-3.126,12-2C62.262,114.187,62.711,118.946,66,118.341z"
		/>
</g>
</svg>
